<svg clip-rule="evenodd" fill-rule="evenodd" stroke-linejoin="round" stroke-miterlimit="2" viewBox="0 0 420 466" xmlns="http://www.w3.org/2000/svg"><path d="m87.964 454.289s153.114-234.718 150.404-235.936c-.375-.168-79.172 11.414-79.172 11.414l135.22-147.275 41.262-14.986s-70.07 115.727-81.213 114.298c-11.517-1.477 64.762-9.323 64.082-10.421-3.169-5.116-.063 5.273-.063 5.273s.204-2.099 0 0c-.106 1.089-230.521 277.633-230.521 277.633z" fill="#da660c" fill-opacity=".99"/><g fill-opacity=".98"><path d="m348.872 161.13s-83.954 93.795-120.198 135.736c-37.832 43.778-124.549 136.129-124.549 136.129s214.117-255.275 214.222-256.363c.202-2.098-73.403 10.297-73.403 10.297l56.191-106.876 35.413-13.228-66.159 103.895 78.484-9.589z" fill="#de7d11"/><path d="m389.056 143.564 30.004-3.889-249.318 290.84z" fill="#0862ab"/><path d="m212.964 237.33s-209.568 222.154-212.964 228.228l18.964-44.987c3.131-3.969 174.503-180.771 176.49-181.988l17.511-1.253z" fill="#d56410"/></g><path d="m311.138 11.758 30.942-11.758-164.535 187.072 133.593-175.314z" fill="#0a60a3" fill-opacity=".93"/><path d="m214.02 339.744c-.326.412-.651.825-.977 1.237.178-.645.236-.502.977-1.237z" fill="#103e78" fill-opacity=".34"/></svg>